<svg id="Layer_1" data-name="Layer 1" xmlns="http://www.w3.org/2000/svg" viewBox="0 0 288 288"><defs><style>.cls-1{fill:none;stroke:#f3849e;stroke-linecap:round;stroke-miterlimit:10;stroke-width:12px;}</style></defs><title>logo</title><path class="cls-1" d="M237.11745,28.552H53.01735a20.09645,20.09645,0,1,0,0,40.1929h160.8745a11.6875,11.6875,0,0,1,0,23.375H83.01735a20.09645,20.09645,0,1,0,0,40.1929h111.8745a11.6877,11.6877,0,0,1,0,23.3754l-153.3745-.0009a20.09665,20.09665,0,1,0,0,40.1933h213.3745a11.6875,11.6875,0,0,1,0,23.375l-146.8745-.0009a20.09665,20.09665,0,1,0,0,40.1933h127.1001"/></svg>