<?xml version="1.0" encoding="utf-8"?>
<!-- Generator: Adobe Illustrator 16.0.3, SVG Export Plug-In . SVG Version: 6.00 Build 0)  -->
<!DOCTYPE svg PUBLIC "-//W3C//DTD SVG 1.1//EN" "http://www.w3.org/Graphics/SVG/1.1/DTD/svg11.dtd">
<svg version="1.1" id="Layer_1" xmlns="http://www.w3.org/2000/svg" xmlns:xlink="http://www.w3.org/1999/xlink" x="0px" y="0px"
	 width="288px" height="288px" viewBox="0 0 288 288" enable-background="new 0 0 288 288" xml:space="preserve">
<path fill="#FFFFFF" stroke="#F3849E" stroke-width="12" stroke-linecap="round" stroke-miterlimit="10" d="M235,39.924H50.9
	c-11.099,0-20.097,8.998-20.097,20.097c0,11.098,8.998,20.096,20.097,20.096h160.875c6.455,0,11.688,5.232,11.688,11.688
	s-5.232,11.688-11.688,11.688H80.9c-11.099,0-20.097,8.998-20.097,20.097c0,11.098,8.998,20.096,20.097,20.096h111.875
	c6.455,0,11.688,5.233,11.688,11.688s-5.232,11.688-11.688,11.688L39.4,167.06c-11.099,0-20.097,8.998-20.097,20.098
	c0,11.098,8.998,20.096,20.097,20.096h213.375c6.455,0,11.688,5.232,11.688,11.688s-5.232,11.688-11.688,11.688L105.9,230.627
	c-11.099,0-20.097,8.998-20.097,20.098c0,11.098,8.998,20.096,20.097,20.096H233"/>
</svg>
